<svg width="25" height="25" viewBox="0 0 25 25" fill="none" xmlns="http://www.w3.org/2000/svg">
<path d="M11.9219 21.6249L3.725 13.0895C1.41666 10.6853 1.5625 6.74365 4.04166 4.53115C6.50104 2.33636 10.2302 2.7624 12.174 5.46136L12.501 5.91449L12.8281 5.46136C14.7719 2.7624 18.501 2.33636 20.9604 4.53115C23.4396 6.74469 23.5854 10.6874 21.276 13.0905L13.0781 21.627C13.0038 21.7056 12.9143 21.7682 12.815 21.811C12.7157 21.8538 12.6087 21.8758 12.5005 21.8758C12.3924 21.8758 12.2854 21.8538 12.1861 21.811C12.0867 21.7682 11.9972 21.7056 11.9229 21.627L11.9219 21.6249Z" stroke="#555555" stroke-width="2" stroke-linecap="round" stroke-linejoin="round"/>
</svg>
