<svg width="63" height="42" viewBox="0 0 63 42" fill="none" xmlns="http://www.w3.org/2000/svg">
<g clip-path="url(#clip0_5003_17706)">
<path d="M23.3739 23.5023L23.3483 17.1599L29.3979 14.9072L23.3056 12.9044L23.178 6.65542L19.4823 11.6973L13.4369 9.82649L16.9461 15.1191L13.5208 20.4214L19.4874 18.4364L23.3739 23.5023Z" fill="#FAFAF8"/>
<path d="M24.1293 30.169H34.9649L48.5452 15.0937L34.8994 0H24.1683L36.9308 15.0715L24.1293 30.169Z" fill="#FAFAF8"/>
<path d="M7.65695e-06 38.2835C7.65695e-06 36.3244 1.65002 34.3978 3.90508 34.3978C5.44114 34.3978 7.16496 36.1362 7.16496 36.1362L5.29732 37.2269C5.29732 37.2269 4.98881 36.4089 3.83716 36.4089C2.66645 36.4089 1.9776 37.3738 1.96952 38.2495C1.96049 39.2284 2.76 40.0901 3.76925 40.0901C4.56112 40.0901 5.39919 39.2379 5.39919 39.2379L6.99517 40.3968C6.99517 40.3968 5.80089 41.8625 3.8032 41.8625C1.80157 41.8625 7.65695e-06 40.6509 7.65695e-06 38.2835Z" fill="#FAFAF8"/>
<path fill-rule="evenodd" clip-rule="evenodd" d="M11.6443 34.4971C9.54381 34.4971 7.8441 36.1811 7.8441 38.2519C7.8441 40.3226 9.54381 42 11.6443 42C13.7447 42 15.451 40.3226 15.451 38.2519C15.451 36.1811 13.7447 34.4971 11.6443 34.4971ZM11.6443 36.3745C12.6945 36.3745 13.5476 37.2165 13.5476 38.2519C13.5476 39.2872 12.6945 40.1226 11.6443 40.1226C10.594 40.1226 9.74748 39.2872 9.74748 38.2519C9.74748 37.2165 10.594 36.3745 11.6443 36.3745Z" fill="#FAFAF8"/>
<path fill-rule="evenodd" clip-rule="evenodd" d="M16.8789 34.6031V41.6219H18.7095V37.8285L21.7298 41.6219H23.5341V34.6031H21.6968V38.7049L18.7095 34.6031H16.8789Z" fill="#FAFAF8"/>
<path fill-rule="evenodd" clip-rule="evenodd" d="M25.0278 34.6031L27.4995 41.6219H30.2224L32.6942 34.6031H30.6917L28.861 40.1757L27.0303 34.6031H25.0278Z" fill="#FAFAF8"/>
<path fill-rule="evenodd" clip-rule="evenodd" d="M34.009 34.6031V41.6219H39.6333V40.0032H35.8397V38.829H39.2499V37.396H35.8397V36.2749H39.6333V34.6031H34.009Z" fill="#FAFAF8"/>
<path fill-rule="evenodd" clip-rule="evenodd" d="M56.6759 34.6031V41.6219H62.3001V40.0032H58.5065V38.829H61.9168V37.396H58.5065V36.2749H62.3001V34.6031H56.6759Z" fill="#FAFAF8"/>
<path fill-rule="evenodd" clip-rule="evenodd" d="M41.7021 34.7358V41.655H43.3279V38.9285H44.2598L45.6873 41.655H47.7824L46.3681 38.6963C48.2069 37.5896 47.8429 35.2732 45.7931 34.7358H41.7021ZM43.2949 36.4076H45.1718C45.824 36.4076 45.7816 37.4226 45.1718 37.4226H43.2949V36.4076Z" fill="#FAFAF8"/>
<path d="M48.7595 40.6859C48.8315 41.1198 50.5355 41.9392 52.2171 41.9392C53.7613 41.9392 55.0024 41.195 55.0024 39.7177C55.0024 37.9009 52.8894 37.4803 52.8894 37.4803C52.8894 37.4803 51.1338 37.4555 51.0886 36.6368C51.0673 36.2516 51.602 36.0342 52.073 36.0342C52.8443 36.0342 53.7058 36.8055 53.7058 36.8055L54.9304 35.4799C54.9304 35.4799 53.3809 34.2507 52.073 34.2507C50.8241 34.2507 49.0476 35.0717 49.0476 36.7814C49.0476 38.236 51.104 38.9051 51.104 38.9051C51.104 38.9051 53.2736 39.1371 53.2736 39.8182C53.2736 40.2818 52.4868 40.4208 52.025 40.4208C50.9039 40.4208 49.96 39.4326 49.96 39.4326L48.7595 40.6859Z" fill="#FAFAF8"/>
</g>
<defs>
<clipPath id="clip0_5003_17706">
<rect width="62.0758" height="41.8489" fill="white" transform="scale(1.00361)"/>
</clipPath>
</defs>
</svg>
