<svg width="101" height="12" viewBox="0 0 101 12" fill="none" xmlns="http://www.w3.org/2000/svg">
<g clip-path="url(#clip0_5003_17722)">
<path d="M46.051 10.9409L50.0619 0.266851H52.7358L49.3934 9.11745H51.5028L50.8344 10.9409H46.051ZM51.8445 10.9409L53.2706 7.10123L54.1173 0.266851H56.5684L55.7217 4.04726H55.8554L57.8014 0.266851H60.4159L56.0931 7.14571L54.6818 10.9409H51.8445ZM62.9561 10.9409L64.9022 6.04865H64.6645L62.0203 10.9409H60.2377L61.3072 6.04865H61.0993L59.3315 10.9409H57.1626L61.1438 0.266851H63.9069L62.7927 5.94487H63.0007L66.15 0.252026H69.1953L65.1844 10.9261L62.9561 10.9409ZM73.5181 10.9409L77.5142 0.266851H80.1732L76.1772 10.9409H73.5181ZM71.0225 5.55942L71.0968 5.54459C71.7355 5.54459 72.2257 5.35187 72.4634 4.69956L73.0279 3.17257C73.3102 2.44614 73.2508 1.97174 72.4486 1.97174H72.3743L71.0225 5.55942ZM66.358 10.9409L70.354 0.266851H72.6417C74.87 0.266851 76.0732 1.88279 75.3305 4.10656L75.2413 4.37341C74.5431 6.44893 72.7308 7.23466 70.4134 7.23466L69.017 10.9409H66.358ZM88.1207 11.0595C85.9965 11.0595 85.016 9.63633 85.8033 7.51634L88.5218 0.252026H91.1957L87.987 8.80612C87.8533 9.16192 87.987 9.36947 88.3584 9.36947C88.7001 9.36947 88.8635 9.19157 89.0269 8.76165L92.2356 0.252026H94.8798L91.8642 8.28724C91.5226 9.23605 91.0175 9.94765 90.4233 10.3924C89.8291 10.8372 89.0566 11.0595 88.1207 11.0595ZM44.9517 1.80866C44.5804 1.80866 44.3427 2.03104 44.1793 2.44614L41.8619 8.59857C41.8173 8.70234 41.7876 8.82095 41.7876 8.93955C41.7876 9.1471 41.9659 9.31017 42.2927 9.31017C42.664 9.31017 42.9166 9.10262 43.08 8.67269L45.3677 2.54992C45.4122 2.43132 45.442 2.32754 45.4568 2.19412C45.442 1.98657 45.2637 1.80866 44.9517 1.80866ZM41.9956 11.0595C39.3514 11.0595 38.8908 8.61339 40.005 5.76697L40.3764 4.83299C41.3865 2.26824 42.872 0.1186 45.2191 0.1186C47.8633 0.1186 48.2496 2.57957 47.1949 5.39634L46.8383 6.34515C45.8876 8.93955 44.3278 11.0595 41.9956 11.0595ZM81.6588 10.9409L81.3022 7.41256H81.1388L79.9356 10.9409H77.3062L81.3171 0.266851H83.9762L82.4461 3.85453H82.6541L85.0457 0.252026H87.7939L83.5156 6.34515L84.1396 10.9261L81.6588 10.9409ZM95.2363 11.0595C93.7508 11.0595 92.6516 10.3331 92.6516 8.9692C92.6516 8.62822 92.7258 8.28724 92.8744 7.96109L93.1566 7.32361H95.5186L94.9838 8.76165C94.8353 9.19157 94.9689 9.42878 95.3403 9.42878C95.9048 9.42878 96.1871 8.8506 96.2316 8.27242C96.2316 7.66459 96.0237 7.35326 95.6077 6.28585L95.4443 5.87075C95.0581 4.92194 94.7758 4.15103 94.7758 3.21705C94.7758 1.36391 96.3059 0.103775 98.549 0.103775C99.9157 0.103775 101.015 0.889506 101.015 2.13482C101 2.49062 100.941 2.86125 100.807 3.20222L100.54 3.97313H98.1331L98.7422 2.28307C98.8313 2.00139 98.757 1.73454 98.3559 1.73454C97.7617 1.73454 97.5092 2.23859 97.4498 2.8909C97.4498 3.45425 97.6874 4.21033 97.9697 4.86264L98.1479 5.26292C98.5193 6.09312 98.9056 7.13088 98.9056 7.85731C98.9056 9.81423 97.3755 11.0744 95.2363 11.0595Z" fill="white"/>
<path d="M27.5563 2.5944C27.0809 2.5944 26.6204 2.60922 26.1747 2.6537C24.7932 1.12671 21.7182 0 18.1678 0C14.6174 0 11.5573 1.11188 10.1609 2.6537C9.7004 2.60922 9.23989 2.5944 8.77938 2.5944C3.95146 2.5944 0 4.52166 0 6.96781C0 9.35465 3.95146 11.2819 8.77938 11.2819C12.3149 11.2819 15.4048 10.2442 16.816 8.77647C17.2617 8.80612 17.7073 8.82095 18.1678 8.82095C18.6283 8.82095 19.074 8.80612 19.5196 8.77647C20.9309 10.259 24.0207 11.2819 27.5563 11.2819C32.3842 11.2819 36.3356 9.35465 36.3356 6.98263C36.3356 4.52166 32.3842 2.5944 27.5563 2.5944ZM27.5563 9.71045C24.6595 9.71045 20.4109 8.89507 20.4109 6.96781C20.4109 5.6039 22.4164 4.69956 24.6595 4.31411C24.6892 4.31411 24.7189 4.26963 24.7041 4.23998V4.22516C24.5407 3.81006 24.2436 3.46908 23.8573 3.2467C23.7979 3.20223 23.7236 3.1874 23.6642 3.20223C20.9012 3.55803 18.6878 5.27774 18.6878 6.96781C18.6878 7.11606 18.7026 7.26431 18.7323 7.41256C18.5392 7.42739 18.3461 7.42739 18.153 7.42739C17.9747 7.42739 17.7816 7.42739 17.5736 7.41256C17.4993 7.41256 17.4399 7.41256 17.3656 7.39774C14.9145 7.26431 11.6167 6.44893 11.2008 4.74404C11.1859 4.69956 11.1562 4.66991 11.1265 4.66991C10.5917 4.59579 10.0569 4.56614 9.50728 4.55131C9.43301 4.55131 9.38844 4.59579 9.4033 4.66991C9.59641 6.4934 11.8395 7.88696 14.7957 8.49479C13.3399 9.33983 10.7551 9.71045 8.77938 9.71045C5.95691 9.71045 1.79747 8.89507 1.79747 6.96781C1.79747 4.89229 5.95691 4.07691 8.77938 4.07691C11.3642 4.07691 15.4939 4.77369 15.9098 6.68613C15.9098 6.74543 15.9693 6.80473 16.0287 6.80473C16.5338 6.89368 17.0537 6.93816 17.5736 6.95298C17.6182 6.95298 17.6479 6.92333 17.6479 6.89368C17.6479 6.89368 17.6479 6.89368 17.6479 6.87886C17.5439 5.05537 15.1968 3.55803 12.1218 2.92055C13.5182 1.91244 16.1772 1.39356 18.1827 1.39356C20.9012 1.39356 24.8526 2.35719 25.1646 4.19551C25.1646 4.21033 25.1646 4.22516 25.1646 4.23998C25.1794 4.29928 25.1794 4.37341 25.1794 4.43271C25.1794 5.76697 23.3226 6.65648 21.02 7.17536C20.9606 7.19018 20.9457 7.21983 20.9754 7.26431C21.2131 7.67941 21.5845 8.02039 22.0153 8.24277C22.0896 8.28724 22.1639 8.30207 22.2381 8.28724C25.0903 7.64976 26.9621 6.0783 26.9621 4.43271C26.9621 4.31411 26.9472 4.19551 26.9323 4.07691C27.1552 4.07691 27.3631 4.06208 27.5711 4.06208C30.3936 4.06208 34.553 4.87746 34.553 6.95298C34.5382 8.89507 30.3787 9.71045 27.5563 9.71045Z" fill="white"/>
</g>
<defs>
<clipPath id="clip0_5003_17722">
<rect width="100.867" height="11.267" fill="white" transform="scale(1.00132)"/>
</clipPath>
</defs>
</svg>
