<svg width="20" height="20" viewBox="0 0 20 20" fill="none" xmlns="http://www.w3.org/2000/svg">
<path d="M9.99999 8.33341C10.884 8.33341 11.7319 7.98223 12.357 7.3571C12.9821 6.73198 13.3333 5.88414 13.3333 5.00008C13.3333 4.11603 12.9821 3.26818 12.357 2.64306C11.7319 2.01794 10.884 1.66675 9.99999 1.66675C9.11593 1.66675 8.26809 2.01794 7.64297 2.64306C7.01785 3.26818 6.66666 4.11603 6.66666 5.00008C6.66666 5.88414 7.01785 6.73198 7.64297 7.3571C8.26809 7.98223 9.11593 8.33341 9.99999 8.33341Z" stroke="#555555" stroke-linecap="round" stroke-linejoin="round"/>
<path d="M17.5 18.3333C17.5 17.3483 17.306 16.3731 16.9291 15.4631C16.5522 14.5532 15.9997 13.7264 15.3033 13.03C14.6069 12.3335 13.7801 11.7811 12.8701 11.4042C11.9602 11.0272 10.9849 10.8333 10 10.8333C9.01509 10.8333 8.03982 11.0272 7.12987 11.4042C6.21993 11.7811 5.39314 12.3335 4.6967 13.03C4.00026 13.7264 3.44781 14.5532 3.0709 15.4631C2.69399 16.3731 2.5 17.3483 2.5 18.3333" stroke="#555555" stroke-linecap="round" stroke-linejoin="round"/>
</svg>
