<svg width="30" height="18" viewBox="0 0 30 18" fill="none" xmlns="http://www.w3.org/2000/svg">
<g clip-path="url(#clip0_5003_17662)">
<path d="M2 0.5H16C16.8284 0.5 17.5 1.17157 17.5 2V16C17.5 16.8284 16.8284 17.5 16 17.5H2C1.17157 17.5 0.5 16.8284 0.5 16V2C0.5 1.17157 1.17157 0.5 2 0.5Z" stroke="#555555"/>
<path d="M4.69301 5.32947C5.24563 5.30247 5.89416 5.33095 6.44875 5.32476C6.86073 5.33779 7.22516 5.50364 7.50071 5.79939C7.93762 6.26836 7.88736 6.75611 7.88764 7.35576L7.88729 8.5368C7.88669 9.38665 7.89232 10.2422 7.88279 11.0923C7.87734 11.5778 7.71634 11.9051 7.35867 12.2329C6.68985 12.7215 6.16328 12.5356 5.38874 12.5717C5.22124 12.5795 4.67642 12.5972 4.56624 12.4856C4.46669 12.2456 4.50384 10.9533 4.50392 10.6186L4.50387 7.69109L4.50356 6.29372C4.50357 6.05262 4.49311 5.73217 4.52669 5.49223C4.53827 5.40954 4.62506 5.36758 4.69301 5.32947Z" fill="#555555"/>
<path d="M5.53356 6.28854C5.91623 6.31312 6.68195 6.1562 6.82358 6.5898C6.8824 6.76983 6.85844 7.40683 6.85832 7.64023L6.85703 9.3966L6.85963 10.5594C6.86021 10.7756 6.86805 11.0086 6.84677 11.2224C6.83763 11.3142 6.76227 11.4034 6.70395 11.4698C6.43665 11.6641 5.87595 11.6043 5.52537 11.6017C5.54377 9.84871 5.49258 8.03286 5.53356 6.28854Z" fill="white"/>
<path d="M11.6799 5.31431C12.0492 5.26063 12.5843 5.34177 12.9198 5.50634C13.0011 5.54619 13.172 5.64645 13.1941 5.74176C13.2382 5.93136 13.1304 6.29006 13.0514 6.46686C13.0134 6.55178 12.8987 6.57551 12.8168 6.60001C12.7265 6.5743 12.5688 6.50073 12.4813 6.46296C11.7942 6.16617 11.0762 6.3944 11.09 7.25216C11.1015 7.96364 11.7332 8.17238 12.2537 8.47402C13.0261 8.90094 13.439 9.52788 13.4492 10.4149C13.4635 11.6737 12.7783 12.5774 11.4679 12.604C11.1513 12.6026 10.7764 12.5213 10.4927 12.4026C10.312 12.3269 10.0311 12.2096 10.0096 12.0079C9.99352 11.8568 10.0453 11.614 10.0903 11.474C10.2112 11.0985 10.4049 11.1903 10.6843 11.3295C11.164 11.5828 11.8773 11.7157 12.2485 11.2077C12.4201 10.9729 12.461 10.6038 12.4172 10.3198C12.2992 9.5546 11.4609 9.40569 10.9344 9.01166C10.4835 8.67952 10.1871 8.24274 10.106 7.68263C9.94251 6.55496 10.4867 5.48429 11.6799 5.31431Z" fill="#555555"/>
</g>
<path fill-rule="evenodd" clip-rule="evenodd" d="M24 6C24.1591 6 24.3117 6.06321 24.4243 6.17574C24.5368 6.28826 24.6 6.44087 24.6 6.6V8.4H26.4C26.5591 8.4 26.7117 8.46321 26.8243 8.57574C26.9368 8.68826 27 8.84087 27 9C27 9.15913 26.9368 9.31174 26.8243 9.42426C26.7117 9.53679 26.5591 9.6 26.4 9.6H24.6V11.4C24.6 11.5591 24.5368 11.7117 24.4243 11.8243C24.3117 11.9368 24.1591 12 24 12C23.8409 12 23.6883 11.9368 23.5757 11.8243C23.4632 11.7117 23.4 11.5591 23.4 11.4V9.6H21.6C21.4409 9.6 21.2883 9.53679 21.1757 9.42426C21.0632 9.31174 21 9.15913 21 9C21 8.84087 21.0632 8.68826 21.1757 8.57574C21.2883 8.46321 21.4409 8.4 21.6 8.4H23.4V6.6C23.4 6.44087 23.4632 6.28826 23.5757 6.17574C23.6883 6.06321 23.8409 6 24 6Z" fill="#555555"/>
<defs>
<clipPath id="clip0_5003_17662">
<rect width="18" height="18" fill="white"/>
</clipPath>
</defs>
</svg>
