<svg width="20" height="20" viewBox="0 0 20 20" fill="none" xmlns="http://www.w3.org/2000/svg">
<path d="M2.5 7.49992C2.5 7.05789 2.67559 6.63397 2.98816 6.32141C3.30072 6.00885 3.72464 5.83325 4.16667 5.83325H15.8333C16.2754 5.83325 16.6993 6.00885 17.0118 6.32141C17.3244 6.63397 17.5 7.05789 17.5 7.49992V16.6666C17.5 17.1086 17.3244 17.5325 17.0118 17.8451C16.6993 18.1577 16.2754 18.3333 15.8333 18.3333H4.16667C3.72464 18.3333 3.30072 18.1577 2.98816 17.8451C2.67559 17.5325 2.5 17.1086 2.5 16.6666V7.49992Z" stroke="#555555" stroke-linecap="round" stroke-linejoin="round"/>
<path d="M6.66666 8.33341V5.00008C6.66666 4.11603 7.01785 3.26818 7.64297 2.64306C8.2681 2.01794 9.11594 1.66675 10 1.66675C10.8841 1.66675 11.7319 2.01794 12.357 2.64306C12.9821 3.26818 13.3333 4.11603 13.3333 5.00008V8.07425" stroke="#555555" stroke-linecap="round" stroke-linejoin="round"/>
</svg>
